<svg xmlns="http://www.w3.org/2000/svg" width="1920" height="480" viewBox="0 0 1920 480"><title>Delivery neighborhood and service corridor silhouettes</title><path d="M0 480V70h245v410z" fill="#172630"/><path d="M0 70h245" stroke="#526067" stroke-width="5"/><rect x="17" y="100" width="12" height="21" fill="#0e1d26"/><rect x="49" y="100" width="12" height="21" fill="#0e1d26"/><rect x="81" y="100" width="12" height="21" fill="#0e1d26"/><rect x="113" y="100" width="12" height="21" fill="#0e1d26"/><rect x="145" y="100" width="12" height="21" fill="#9b8d64"/><rect x="177" y="100" width="12" height="21" fill="#0e1d26"/><rect x="209" y="100" width="12" height="21" fill="#0e1d26"/><rect x="17" y="148" width="12" height="21" fill="#9b8d64"/><rect x="49" y="148" width="12" height="21" fill="#0e1d26"/><rect x="81" y="148" width="12" height="21" fill="#0e1d26"/><rect x="113" y="148" width="12" height="21" fill="#0e1d26"/><rect x="145" y="148" width="12" height="21" fill="#0e1d26"/><rect x="177" y="148" width="12" height="21" fill="#9b8d64"/><rect x="209" y="148" width="12" height="21" fill="#0e1d26"/><rect x="17" y="196" width="12" height="21" fill="#0e1d26"/><rect x="49" y="196" width="12" height="21" fill="#9b8d64"/><rect x="81" y="196" width="12" height="21" fill="#0e1d26"/><rect x="113" y="196" width="12" height="21" fill="#0e1d26"/><rect x="145" y="196" width="12" height="21" fill="#0e1d26"/><rect x="177" y="196" width="12" height="21" fill="#0e1d26"/><rect x="209" y="196" width="12" height="21" fill="#9b8d64"/><rect x="17" y="244" width="12" height="21" fill="#0e1d26"/><rect x="49" y="244" width="12" height="21" fill="#0e1d26"/><rect x="81" y="244" width="12" height="21" fill="#9b8d64"/><rect x="113" y="244" width="12" height="21" fill="#0e1d26"/><rect x="145" y="244" width="12" height="21" fill="#0e1d26"/><rect x="177" y="244" width="12" height="21" fill="#0e1d26"/><rect x="209" y="244" width="12" height="21" fill="#0e1d26"/><rect x="17" y="292" width="12" height="21" fill="#0e1d26"/><rect x="49" y="292" width="12" height="21" fill="#0e1d26"/><rect x="81" y="292" width="12" height="21" fill="#0e1d26"/><rect x="113" y="292" width="12" height="21" fill="#9b8d64"/><rect x="145" y="292" width="12" height="21" fill="#0e1d26"/><rect x="177" y="292" width="12" height="21" fill="#0e1d26"/><rect x="209" y="292" width="12" height="21" fill="#0e1d26"/><rect x="17" y="340" width="12" height="21" fill="#0e1d26"/><rect x="49" y="340" width="12" height="21" fill="#0e1d26"/><rect x="81" y="340" width="12" height="21" fill="#0e1d26"/><rect x="113" y="340" width="12" height="21" fill="#0e1d26"/><rect x="145" y="340" width="12" height="21" fill="#9b8d64"/><rect x="177" y="340" width="12" height="21" fill="#0e1d26"/><rect x="209" y="340" width="12" height="21" fill="#0e1d26"/><rect x="12" y="391" width="221" height="16" fill="#65706e"/><rect x="16" y="415" width="213" height="65" fill="#101f28"/><path d="M245 480V128h170v352z" fill="#213039"/><path d="M245 128h170" stroke="#526067" stroke-width="5"/><rect x="262" y="158" width="12" height="21" fill="#9b8d64"/><rect x="294" y="158" width="12" height="21" fill="#0e1d26"/><rect x="326" y="158" width="12" height="21" fill="#0e1d26"/><rect x="358" y="158" width="12" height="21" fill="#0e1d26"/><rect x="390" y="158" width="12" height="21" fill="#0e1d26"/><rect x="262" y="206" width="12" height="21" fill="#0e1d26"/><rect x="294" y="206" width="12" height="21" fill="#9b8d64"/><rect x="326" y="206" width="12" height="21" fill="#0e1d26"/><rect x="358" y="206" width="12" height="21" fill="#0e1d26"/><rect x="390" y="206" width="12" height="21" fill="#0e1d26"/><rect x="262" y="254" width="12" height="21" fill="#0e1d26"/><rect x="294" y="254" width="12" height="21" fill="#0e1d26"/><rect x="326" y="254" width="12" height="21" fill="#9b8d64"/><rect x="358" y="254" width="12" height="21" fill="#0e1d26"/><rect x="390" y="254" width="12" height="21" fill="#0e1d26"/><rect x="262" y="302" width="12" height="21" fill="#0e1d26"/><rect x="294" y="302" width="12" height="21" fill="#0e1d26"/><rect x="326" y="302" width="12" height="21" fill="#0e1d26"/><rect x="358" y="302" width="12" height="21" fill="#9b8d64"/><rect x="390" y="302" width="12" height="21" fill="#0e1d26"/><rect x="262" y="350" width="12" height="21" fill="#0e1d26"/><rect x="294" y="350" width="12" height="21" fill="#0e1d26"/><rect x="326" y="350" width="12" height="21" fill="#0e1d26"/><rect x="358" y="350" width="12" height="21" fill="#0e1d26"/><rect x="390" y="350" width="12" height="21" fill="#9b8d64"/><rect x="257" y="391" width="146" height="16" fill="#65706e"/><rect x="261" y="415" width="138" height="65" fill="#101f28"/><path d="M415 480V191h190v289z" fill="#172630"/><path d="M415 191h190" stroke="#526067" stroke-width="5"/><rect x="432" y="221" width="12" height="21" fill="#0e1d26"/><rect x="464" y="221" width="12" height="21" fill="#9b8d64"/><rect x="496" y="221" width="12" height="21" fill="#0e1d26"/><rect x="528" y="221" width="12" height="21" fill="#0e1d26"/><rect x="560" y="221" width="12" height="21" fill="#0e1d26"/><rect x="432" y="269" width="12" height="21" fill="#0e1d26"/><rect x="464" y="269" width="12" height="21" fill="#0e1d26"/><rect x="496" y="269" width="12" height="21" fill="#9b8d64"/><rect x="528" y="269" width="12" height="21" fill="#0e1d26"/><rect x="560" y="269" width="12" height="21" fill="#0e1d26"/><rect x="432" y="317" width="12" height="21" fill="#0e1d26"/><rect x="464" y="317" width="12" height="21" fill="#0e1d26"/><rect x="496" y="317" width="12" height="21" fill="#0e1d26"/><rect x="528" y="317" width="12" height="21" fill="#9b8d64"/><rect x="560" y="317" width="12" height="21" fill="#0e1d26"/><rect x="432" y="365" width="12" height="21" fill="#0e1d26"/><rect x="464" y="365" width="12" height="21" fill="#0e1d26"/><rect x="496" y="365" width="12" height="21" fill="#0e1d26"/><rect x="528" y="365" width="12" height="21" fill="#0e1d26"/><rect x="560" y="365" width="12" height="21" fill="#9b8d64"/><rect x="427" y="391" width="166" height="16" fill="#65706e"/><rect x="431" y="415" width="158" height="65" fill="#101f28"/><path d="M605 480V243h165v237z" fill="#26363e"/><path d="M605 243h165" stroke="#526067" stroke-width="5"/><rect x="622" y="273" width="12" height="21" fill="#9b8d64"/><rect x="654" y="273" width="12" height="21" fill="#0e1d26"/><rect x="686" y="273" width="12" height="21" fill="#0e1d26"/><rect x="718" y="273" width="12" height="21" fill="#0e1d26"/><rect x="750" y="273" width="12" height="21" fill="#0e1d26"/><rect x="622" y="321" width="12" height="21" fill="#0e1d26"/><rect x="654" y="321" width="12" height="21" fill="#9b8d64"/><rect x="686" y="321" width="12" height="21" fill="#0e1d26"/><rect x="718" y="321" width="12" height="21" fill="#0e1d26"/><rect x="750" y="321" width="12" height="21" fill="#0e1d26"/><rect x="622" y="369" width="12" height="21" fill="#0e1d26"/><rect x="654" y="369" width="12" height="21" fill="#0e1d26"/><rect x="686" y="369" width="12" height="21" fill="#9b8d64"/><rect x="718" y="369" width="12" height="21" fill="#0e1d26"/><rect x="750" y="369" width="12" height="21" fill="#0e1d26"/><rect x="617" y="391" width="141" height="16" fill="#65706e"/><rect x="621" y="415" width="133" height="65" fill="#101f28"/><path d="M1170 480V242h145v238z" fill="#24343c"/><path d="M1170 242h145" stroke="#526067" stroke-width="5"/><rect x="1187" y="272" width="12" height="21" fill="#0e1d26"/><rect x="1219" y="272" width="12" height="21" fill="#0e1d26"/><rect x="1251" y="272" width="12" height="21" fill="#0e1d26"/><rect x="1283" y="272" width="12" height="21" fill="#9b8d64"/><rect x="1187" y="320" width="12" height="21" fill="#0e1d26"/><rect x="1219" y="320" width="12" height="21" fill="#0e1d26"/><rect x="1251" y="320" width="12" height="21" fill="#0e1d26"/><rect x="1283" y="320" width="12" height="21" fill="#0e1d26"/><rect x="1187" y="368" width="12" height="21" fill="#9b8d64"/><rect x="1219" y="368" width="12" height="21" fill="#0e1d26"/><rect x="1251" y="368" width="12" height="21" fill="#0e1d26"/><rect x="1283" y="368" width="12" height="21" fill="#0e1d26"/><rect x="1182" y="391" width="121" height="16" fill="#65706e"/><rect x="1186" y="415" width="113" height="65" fill="#101f28"/><path d="M1315 480V185h190v295z" fill="#1b2c35"/><path d="M1315 185h190" stroke="#526067" stroke-width="5"/><rect x="1332" y="215" width="12" height="21" fill="#0e1d26"/><rect x="1364" y="215" width="12" height="21" fill="#0e1d26"/><rect x="1396" y="215" width="12" height="21" fill="#0e1d26"/><rect x="1428" y="215" width="12" height="21" fill="#0e1d26"/><rect x="1460" y="215" width="12" height="21" fill="#9b8d64"/><rect x="1332" y="263" width="12" height="21" fill="#9b8d64"/><rect x="1364" y="263" width="12" height="21" fill="#0e1d26"/><rect x="1396" y="263" width="12" height="21" fill="#0e1d26"/><rect x="1428" y="263" width="12" height="21" fill="#0e1d26"/><rect x="1460" y="263" width="12" height="21" fill="#0e1d26"/><rect x="1332" y="311" width="12" height="21" fill="#0e1d26"/><rect x="1364" y="311" width="12" height="21" fill="#9b8d64"/><rect x="1396" y="311" width="12" height="21" fill="#0e1d26"/><rect x="1428" y="311" width="12" height="21" fill="#0e1d26"/><rect x="1460" y="311" width="12" height="21" fill="#0e1d26"/><rect x="1332" y="359" width="12" height="21" fill="#0e1d26"/><rect x="1364" y="359" width="12" height="21" fill="#0e1d26"/><rect x="1396" y="359" width="12" height="21" fill="#9b8d64"/><rect x="1428" y="359" width="12" height="21" fill="#0e1d26"/><rect x="1460" y="359" width="12" height="21" fill="#0e1d26"/><rect x="1327" y="391" width="166" height="16" fill="#65706e"/><rect x="1331" y="415" width="158" height="65" fill="#101f28"/><path d="M1505 480V115h175v365z" fill="#24343c"/><path d="M1505 115h175" stroke="#526067" stroke-width="5"/><rect x="1522" y="145" width="12" height="21" fill="#0e1d26"/><rect x="1554" y="145" width="12" height="21" fill="#0e1d26"/><rect x="1586" y="145" width="12" height="21" fill="#0e1d26"/><rect x="1618" y="145" width="12" height="21" fill="#0e1d26"/><rect x="1650" y="145" width="12" height="21" fill="#9b8d64"/><rect x="1522" y="193" width="12" height="21" fill="#9b8d64"/><rect x="1554" y="193" width="12" height="21" fill="#0e1d26"/><rect x="1586" y="193" width="12" height="21" fill="#0e1d26"/><rect x="1618" y="193" width="12" height="21" fill="#0e1d26"/><rect x="1650" y="193" width="12" height="21" fill="#0e1d26"/><rect x="1522" y="241" width="12" height="21" fill="#0e1d26"/><rect x="1554" y="241" width="12" height="21" fill="#9b8d64"/><rect x="1586" y="241" width="12" height="21" fill="#0e1d26"/><rect x="1618" y="241" width="12" height="21" fill="#0e1d26"/><rect x="1650" y="241" width="12" height="21" fill="#0e1d26"/><rect x="1522" y="289" width="12" height="21" fill="#0e1d26"/><rect x="1554" y="289" width="12" height="21" fill="#0e1d26"/><rect x="1586" y="289" width="12" height="21" fill="#9b8d64"/><rect x="1618" y="289" width="12" height="21" fill="#0e1d26"/><rect x="1650" y="289" width="12" height="21" fill="#0e1d26"/><rect x="1522" y="337" width="12" height="21" fill="#0e1d26"/><rect x="1554" y="337" width="12" height="21" fill="#0e1d26"/><rect x="1586" y="337" width="12" height="21" fill="#0e1d26"/><rect x="1618" y="337" width="12" height="21" fill="#9b8d64"/><rect x="1650" y="337" width="12" height="21" fill="#0e1d26"/><rect x="1517" y="391" width="151" height="16" fill="#65706e"/><rect x="1521" y="415" width="143" height="65" fill="#101f28"/><path d="M1680 480V52h240v428z" fill="#182932"/><path d="M1680 52h240" stroke="#526067" stroke-width="5"/><rect x="1697" y="82" width="12" height="21" fill="#0e1d26"/><rect x="1729" y="82" width="12" height="21" fill="#0e1d26"/><rect x="1761" y="82" width="12" height="21" fill="#0e1d26"/><rect x="1793" y="82" width="12" height="21" fill="#9b8d64"/><rect x="1825" y="82" width="12" height="21" fill="#0e1d26"/><rect x="1857" y="82" width="12" height="21" fill="#0e1d26"/><rect x="1889" y="82" width="12" height="21" fill="#0e1d26"/><rect x="1697" y="130" width="12" height="21" fill="#0e1d26"/><rect x="1729" y="130" width="12" height="21" fill="#0e1d26"/><rect x="1761" y="130" width="12" height="21" fill="#0e1d26"/><rect x="1793" y="130" width="12" height="21" fill="#0e1d26"/><rect x="1825" y="130" width="12" height="21" fill="#9b8d64"/><rect x="1857" y="130" width="12" height="21" fill="#0e1d26"/><rect x="1889" y="130" width="12" height="21" fill="#0e1d26"/><rect x="1697" y="178" width="12" height="21" fill="#9b8d64"/><rect x="1729" y="178" width="12" height="21" fill="#0e1d26"/><rect x="1761" y="178" width="12" height="21" fill="#0e1d26"/><rect x="1793" y="178" width="12" height="21" fill="#0e1d26"/><rect x="1825" y="178" width="12" height="21" fill="#0e1d26"/><rect x="1857" y="178" width="12" height="21" fill="#9b8d64"/><rect x="1889" y="178" width="12" height="21" fill="#0e1d26"/><rect x="1697" y="226" width="12" height="21" fill="#0e1d26"/><rect x="1729" y="226" width="12" height="21" fill="#9b8d64"/><rect x="1761" y="226" width="12" height="21" fill="#0e1d26"/><rect x="1793" y="226" width="12" height="21" fill="#0e1d26"/><rect x="1825" y="226" width="12" height="21" fill="#0e1d26"/><rect x="1857" y="226" width="12" height="21" fill="#0e1d26"/><rect x="1889" y="226" width="12" height="21" fill="#9b8d64"/><rect x="1697" y="274" width="12" height="21" fill="#0e1d26"/><rect x="1729" y="274" width="12" height="21" fill="#0e1d26"/><rect x="1761" y="274" width="12" height="21" fill="#9b8d64"/><rect x="1793" y="274" width="12" height="21" fill="#0e1d26"/><rect x="1825" y="274" width="12" height="21" fill="#0e1d26"/><rect x="1857" y="274" width="12" height="21" fill="#0e1d26"/><rect x="1889" y="274" width="12" height="21" fill="#0e1d26"/><rect x="1697" y="322" width="12" height="21" fill="#0e1d26"/><rect x="1729" y="322" width="12" height="21" fill="#0e1d26"/><rect x="1761" y="322" width="12" height="21" fill="#0e1d26"/><rect x="1793" y="322" width="12" height="21" fill="#9b8d64"/><rect x="1825" y="322" width="12" height="21" fill="#0e1d26"/><rect x="1857" y="322" width="12" height="21" fill="#0e1d26"/><rect x="1889" y="322" width="12" height="21" fill="#0e1d26"/><rect x="1692" y="391" width="216" height="16" fill="#65706e"/><rect x="1696" y="415" width="208" height="65" fill="#101f28"/><path d="M0 476h775m370 0h775" stroke="#788077" stroke-width="8"/><g stroke="#354750" stroke-width="3"><path d="M0 376h765M1180 376h740M207 91v289M1730 75v305"/></g></svg>