<svg xmlns="http://www.w3.org/2000/svg" width="160" height="400" viewBox="0 0 160 400"><title>Restored crossing signal after dawn</title><path d="M72 130h17v254H72z" fill="#404b52"/><path d="M76 147h4v228h-4z" fill="#667277"/><path d="M55 383h50v17H55z" fill="#242e35"/><rect x="39" y="10" width="84" height="156" rx="8" fill="#19242c" stroke="#778184" stroke-width="3"/><path d="M49 23h64v7H49zm0 45h64v7H49zm0 45h64v7H49z" fill="#0d151c"/><g fill="#111b22" stroke="#3c494f" stroke-width="3"><circle cx="81" cy="46" r="15"/><circle cx="81" cy="91" r="15"/><circle cx="81" cy="136" r="15"/></g><rect x="61" y="254" width="39" height="48" rx="3" fill="#536067"/><path d="M67 263h26m-26 7h26m-26 7h26" stroke="#26353d" stroke-width="2"/><circle cx="81" cy="136" r="12" fill="#9dc79a"/><path d="M76 140l5-9 5 9" fill="none" stroke="#eff4d8" stroke-width="2"/></svg>
